<svg width="1920" height="1080" viewBox="0 0 1920 1080" fill="none" xmlns="http://www.w3.org/2000/svg">
<path d="M973.442 351.972V299.491H1074.23V351.972H973.442Z" fill="#6182A1"/>
<path d="M857.871 351.972V299.491H958.66V351.972H857.871Z" fill="#6182A1"/>
<path d="M1087.67 351.972V298.146H1154.86V351.972H1087.67Z" fill="#6182A1"/>
<path d="M777.912 351.299V299.491H845.776V351.299H777.912Z" fill="#6182A1"/>
<path d="M778.248 524.215V463.661H846.784V524.215H778.248Z" fill="#6182A1"/>
<path d="M1086.33 524.215V463.661H1154.86V524.215H1086.33Z" fill="#6182A1"/>
<path d="M778.583 629.176V540.363H847.12V629.176H778.583Z" fill="#6182A1"/>
<path d="M777.24 790.654V645.324H845.776V790.654H777.24Z" fill="#315470"/>
<path d="M1087.67 792V646.67H1156.21V792H1087.67Z" fill="#315470"/>
<path d="M1087.67 629.176V540.363H1156.21V629.176H1087.67Z" fill="#6182A1"/>
<path d="M642.854 350.626V298.818H763.801V350.626H642.854Z" fill="#315470"/>
<path d="M763.801 364.755H642.854V448.859H763.801V364.755Z" fill="#315470"/>
<path d="M763.801 465.006H642.854V522.869H763.801V465.006Z" fill="#315470"/>
<path d="M763.801 540.363H642.854V628.503H763.801V540.363Z" fill="#315470"/>
<path d="M763.801 643.978H642.854V791.327H763.801V643.978Z" fill="#315470"/>
<path d="M1168.3 349.953V298.146H1289.25V349.953H1168.3Z" fill="#315470"/>
<path d="M1289.25 364.083H1168.3V448.186H1289.25V364.083Z" fill="#315470"/>
<path d="M1289.25 464.334H1168.3V522.197H1289.25V464.334Z" fill="#315470"/>
<path d="M1289.25 539.69H1168.3V627.83H1289.25V539.69Z" fill="#315470"/>
<path d="M1289.25 643.305H1168.3V790.654H1289.25V643.305Z" fill="#315470"/>
<path d="M1072.89 664C992.738 627.459 946.322 626.711 860.559 664V791.327H896.171V729.5C896.171 729.5 896.171 676.947 966.723 676.947C1037.28 676.947 1037.28 729.5 1037.28 729.5V791.327H1072.89V664Z" fill="#315470"/>
<path d="M1113 271V253L1125 271H1113Z" fill="#D8DCDC"/>
<path d="M822 271V254L811.5 271H822Z" fill="#D8DCDC"/>
<path d="M844.832 228L820 260H1116L1091.66 228H844.832Z" fill="#86B3D2"/>
<path d="M684.831 254L643 271H812.192L822 254H684.831Z" fill="#315470"/>
<path d="M1247.83 253L1290 271H1125.26L1113 253H1247.83Z" fill="#315470"/>
<path d="M628 298H568.735L529 322H628V298Z" fill="#143755"/>
<path d="M437.244 375.521H353.253V443.476H437.244V375.521Z" fill="#143755" stroke="black"/>
<path d="M1564.07 376.193H1480.08V444.149H1564.07V376.193Z" fill="#143755" stroke="black"/>
<path d="M301.179 486.537H162.582L111.696 524.215H301.179V486.537Z" fill="#848E90"/>
<path d="M1618.49 485.191H1757.09L1807.98 525.561H1618.49V485.191Z" fill="#848E90"/>
<path d="M163.77 386.959V440.112H291.436V388.304L163.77 386.959Z" fill="#143755"/>
<path d="M1627.9 390.996V444.149H1755.57V392.341L1627.9 390.996Z" fill="#143755"/>
<path d="M1305.37 298.146H1364.5L1404.15 322.367H1305.37V298.146Z" fill="#143755"/>
<path d="M1289.92 272.578H642.183V298.818H1289.92V272.578Z" fill="#D9D9D9"/>
<path d="M140.252 374.848V337.17L505.109 336.497V524.215H301.515V473.08H163.77V441.458H291.436V374.848H140.252Z" fill="#F6BEA8"/>
<path d="M1779.76 375.658V337.845L1414.23 337.17V525.561H1618.2V474.243H1756.19V442.507H1628.29V375.658H1779.76Z" fill="#F6BEA7"/>
<path d="M627.4 336.497H517.876V524.215H627.4V336.497Z" fill="#AFB5B5"/>
<path d="M627.4 540.363H517.876V629.849H627.4V540.363Z" fill="#AFB5B5"/>
<path d="M627.4 644.651H517.876V792H627.4V644.651Z" fill="#AFB5B5"/>
<path d="M1404.82 335.824H1305.37V523.82H1404.82V335.824Z" fill="#AFB5B5"/>
<path d="M1404.82 539.991H1305.37V629.609H1404.82V539.991Z" fill="#AFB5B5"/>
<path d="M1404.82 644.433H1305.37V792H1404.82V644.433Z" fill="#AFB5B5"/>
<path d="M1316.84 273L1363 297H1305V273H1316.84Z" fill="#D9D9D9"/>
<path d="M615.959 273L569 297H628V273H615.959Z" fill="#D9D9D9"/>
<path d="M139.581 323.713V269.887L465.465 323.713H139.581Z" fill="#143755"/>
<path d="M1779.08 322.367V268.541L1453.2 322.367H1779.08Z" fill="#143755" stroke="black"/>
<path d="M512.5 318.33L109.344 249.029L386.178 173L529.298 191.166L649.573 228.845L512.5 318.33Z" fill="#86B3D2"/>
<path d="M1410.87 317.658L1809.32 249.029L1532.49 173L1389.37 191.166L1269.09 228.845L1410.87 317.658Z" fill="#85B2D1"/>
<path d="M505.109 540.363H108V629.849H505.109V540.363Z" fill="#E09577"/>
<path d="M1811.34 540.363H1414.23V629.849H1811.34V540.363Z" fill="#DF9577"/>
<path d="M859.215 631.195V485.191H1071.54V631.195H859.215Z" fill="#143755"/>
<path d="M995.616 526.906H934.471V572.659H995.616V526.906Z" fill="white"/>
<path d="M927.079 527.579H865.934V573.331H927.079V527.579Z" fill="white"/>
<path d="M1064.15 526.234H1003.01V571.986H1064.15V526.234Z" fill="white"/>
<path d="M995.616 578.041H934.471V623.793H995.616V578.041Z" fill="white"/>
<path d="M1064.15 578.041H1003.01V623.793H1064.15V578.041Z" fill="white"/>
<circle cx="1034" cy="549" r="19.5" fill="#D9D9D9" stroke="#878484"/>
<path d="M1033.92 559.529H1029.21L1028.54 557.511L1029.21 554.819V536.653L1030.56 535.98L1032.57 536.653V554.147L1043.32 548.764H1046.01V551.455L1033.92 559.529Z" fill="#143755"/>
<path d="M927.079 578.041H865.934V623.793H927.079V578.041Z" fill="#FFF6F6"/>
<path d="M896 487.312V466.688L899.5 466L903 466.688V487.312L899.5 488L896 487.312Z" fill="#D9D9D9" stroke="black"/>
<path d="M1029 487.281V465.719L1032 465L1035 465.719V487.281L1032 488L1029 487.281Z" fill="#D9D9D9" stroke="black"/>
<path d="M797.857 449H781.379L806.486 376.273H826.301L851.372 449H834.895L816.678 392.892H816.109L797.857 449ZM796.827 420.413H835.747V432.416H796.827V420.413ZM925.877 401.734H910.323C910.039 399.722 909.459 397.935 908.583 396.372C907.707 394.786 906.582 393.437 905.209 392.324C903.836 391.211 902.25 390.359 900.451 389.767C898.675 389.175 896.746 388.879 894.662 388.879C890.898 388.879 887.619 389.814 884.826 391.685C882.032 393.531 879.866 396.23 878.327 399.781C876.788 403.309 876.019 407.594 876.019 412.636C876.019 417.821 876.788 422.177 878.327 425.705C879.89 429.232 882.068 431.895 884.861 433.695C887.655 435.494 890.886 436.393 894.556 436.393C896.615 436.393 898.521 436.121 900.273 435.577C902.049 435.032 903.623 434.239 904.996 433.197C906.369 432.132 907.506 430.842 908.405 429.327C909.328 427.812 909.968 426.083 910.323 424.142L925.877 424.213C925.474 427.551 924.468 430.771 922.858 433.872C921.272 436.95 919.13 439.708 916.431 442.146C913.756 444.561 910.56 446.479 906.843 447.899C903.15 449.296 898.971 449.994 894.307 449.994C887.82 449.994 882.02 448.527 876.907 445.591C871.817 442.655 867.792 438.406 864.833 432.842C861.897 427.279 860.429 420.544 860.429 412.636C860.429 404.705 861.921 397.958 864.904 392.395C867.887 386.831 871.935 382.594 877.049 379.682C882.162 376.746 887.915 375.278 894.307 375.278C898.521 375.278 902.427 375.87 906.026 377.054C909.648 378.238 912.856 379.966 915.65 382.239C918.443 384.488 920.716 387.246 922.468 390.513C924.243 393.78 925.38 397.52 925.877 401.734ZM941.903 449V376.273H970.596C976.089 376.273 980.776 377.255 984.659 379.22C988.565 381.161 991.536 383.92 993.572 387.494C995.632 391.045 996.662 395.224 996.662 400.03C996.662 404.859 995.62 409.014 993.537 412.494C991.453 415.951 988.435 418.602 984.481 420.449C980.551 422.295 975.793 423.219 970.206 423.219H950.994V410.861H967.72C970.655 410.861 973.094 410.458 975.035 409.653C976.976 408.848 978.421 407.641 979.368 406.031C980.338 404.421 980.824 402.421 980.824 400.03C980.824 397.615 980.338 395.579 979.368 393.922C978.421 392.265 976.965 391.01 975 390.158C973.058 389.282 970.608 388.844 967.649 388.844H957.279V449H941.903ZM981.179 415.903L999.254 449H982.279L964.595 415.903H981.179ZM1051.98 397.189C1051.7 394.324 1050.48 392.099 1048.32 390.513C1046.17 388.927 1043.25 388.134 1039.55 388.134C1037.04 388.134 1034.92 388.489 1033.2 389.199C1031.47 389.885 1030.14 390.844 1029.22 392.075C1028.32 393.306 1027.87 394.703 1027.87 396.266C1027.82 397.568 1028.09 398.704 1028.69 399.675C1029.3 400.645 1030.14 401.486 1031.21 402.196C1032.27 402.883 1033.5 403.486 1034.9 404.007C1036.3 404.504 1037.79 404.93 1039.37 405.286L1045.91 406.848C1049.08 407.558 1051.99 408.505 1054.64 409.689C1057.3 410.873 1059.59 412.329 1061.53 414.057C1063.48 415.785 1064.98 417.821 1066.04 420.165C1067.13 422.509 1067.69 425.196 1067.71 428.226C1067.69 432.677 1066.55 436.536 1064.3 439.803C1062.08 443.046 1058.86 445.567 1054.64 447.366C1050.45 449.142 1045.4 450.03 1039.48 450.03C1033.61 450.03 1028.5 449.13 1024.14 447.331C1019.81 445.532 1016.42 442.868 1013.98 439.341C1011.57 435.79 1010.3 431.398 1010.18 426.166H1025.06C1025.23 428.605 1025.93 430.641 1027.16 432.274C1028.41 433.884 1030.08 435.103 1032.17 435.932C1034.27 436.737 1036.65 437.139 1039.3 437.139C1041.91 437.139 1044.17 436.76 1046.09 436.003C1048.03 435.245 1049.53 434.192 1050.6 432.842C1051.66 431.493 1052.19 429.942 1052.19 428.19C1052.19 426.557 1051.71 425.184 1050.74 424.071C1049.79 422.958 1048.39 422.011 1046.55 421.23C1044.73 420.449 1042.49 419.739 1039.84 419.099L1031.92 417.111C1025.79 415.619 1020.94 413.287 1017.39 410.115C1013.84 406.943 1012.08 402.67 1012.1 397.295C1012.08 392.892 1013.25 389.045 1015.62 385.754C1018.01 382.464 1021.29 379.895 1025.45 378.048C1029.62 376.202 1034.36 375.278 1039.66 375.278C1045.06 375.278 1049.77 376.202 1053.79 378.048C1057.84 379.895 1060.99 382.464 1063.24 385.754C1065.49 389.045 1066.65 392.857 1066.72 397.189H1051.98ZM1122.51 397.189C1122.22 394.324 1121.01 392.099 1118.85 390.513C1116.7 388.927 1113.77 388.134 1110.08 388.134C1107.57 388.134 1105.45 388.489 1103.72 389.199C1101.99 389.885 1100.67 390.844 1099.75 392.075C1098.85 393.306 1098.4 394.703 1098.4 396.266C1098.35 397.568 1098.62 398.704 1099.21 399.675C1099.83 400.645 1100.67 401.486 1101.73 402.196C1102.8 402.883 1104.03 403.486 1105.43 404.007C1106.82 404.504 1108.32 404.93 1109.9 405.286L1116.44 406.848C1119.61 407.558 1122.52 408.505 1125.17 409.689C1127.82 410.873 1130.12 412.329 1132.06 414.057C1134 415.785 1135.51 417.821 1136.57 420.165C1137.66 422.509 1138.22 425.196 1138.24 428.226C1138.22 432.677 1137.08 436.536 1134.83 439.803C1132.61 443.046 1129.39 445.567 1125.17 447.366C1120.98 449.142 1115.93 450.03 1110.01 450.03C1104.14 450.03 1099.02 449.13 1094.67 447.331C1090.34 445.532 1086.95 442.868 1084.51 439.341C1082.1 435.79 1080.83 431.398 1080.71 426.166H1095.59C1095.76 428.605 1096.46 430.641 1097.69 432.274C1098.94 433.884 1100.61 435.103 1102.69 435.932C1104.8 436.737 1107.18 437.139 1109.83 437.139C1112.44 437.139 1114.7 436.76 1116.61 436.003C1118.55 435.245 1120.06 434.192 1121.12 432.842C1122.19 431.493 1122.72 429.942 1122.72 428.19C1122.72 426.557 1122.24 425.184 1121.27 424.071C1120.32 422.958 1118.92 422.011 1117.08 421.23C1115.25 420.449 1113.02 419.739 1110.36 419.099L1102.44 417.111C1096.31 415.619 1091.47 413.287 1087.92 410.115C1084.37 406.943 1082.61 402.67 1082.63 397.295C1082.61 392.892 1083.78 389.045 1086.14 385.754C1088.54 382.464 1091.81 379.895 1095.98 378.048C1100.15 376.202 1104.88 375.278 1110.19 375.278C1115.58 375.278 1120.29 376.202 1124.32 378.048C1128.37 379.895 1131.52 382.464 1133.77 385.754C1136.01 389.045 1137.17 392.857 1137.25 397.189H1122.51Z" fill="#133551"/>
<path d="M236.733 886L257.208 840.5H265.528L286.068 886H277.228L259.613 844.985H262.993L245.443 886H236.733ZM246.158 875.47L248.433 868.84H273.003L275.278 875.47H246.158ZM304.732 886.455C301.828 886.455 299.033 886.087 296.347 885.35C293.703 884.57 291.602 883.638 290.042 882.555L293.162 876.38C294.722 877.377 296.585 878.2 298.752 878.85C300.918 879.5 303.085 879.825 305.252 879.825C307.808 879.825 309.65 879.478 310.777 878.785C311.947 878.092 312.532 877.16 312.532 875.99C312.532 875.037 312.142 874.322 311.362 873.845C310.582 873.325 309.563 872.935 308.307 872.675C307.05 872.415 305.642 872.177 304.082 871.96C302.565 871.743 301.027 871.462 299.467 871.115C297.95 870.725 296.563 870.183 295.307 869.49C294.05 868.753 293.032 867.778 292.252 866.565C291.472 865.352 291.082 863.748 291.082 861.755C291.082 859.545 291.71 857.638 292.967 856.035C294.223 854.388 295.978 853.132 298.232 852.265C300.528 851.355 303.237 850.9 306.357 850.9C308.697 850.9 311.058 851.16 313.442 851.68C315.825 852.2 317.797 852.937 319.357 853.89L316.237 860.065C314.59 859.068 312.922 858.397 311.232 858.05C309.585 857.66 307.938 857.465 306.292 857.465C303.822 857.465 301.98 857.833 300.767 858.57C299.597 859.307 299.012 860.238 299.012 861.365C299.012 862.405 299.402 863.185 300.182 863.705C300.962 864.225 301.98 864.637 303.237 864.94C304.493 865.243 305.88 865.503 307.397 865.72C308.957 865.893 310.495 866.175 312.012 866.565C313.528 866.955 314.915 867.497 316.172 868.19C317.472 868.84 318.512 869.772 319.292 870.985C320.072 872.198 320.462 873.78 320.462 875.73C320.462 877.897 319.812 879.782 318.512 881.385C317.255 882.988 315.457 884.245 313.117 885.155C310.777 886.022 307.982 886.455 304.732 886.455ZM330.709 886V851.29H338.834V886H330.709ZM334.804 845.57C333.287 845.57 332.031 845.093 331.034 844.14C330.081 843.187 329.604 842.038 329.604 840.695C329.604 839.308 330.081 838.16 331.034 837.25C332.031 836.297 333.287 835.82 334.804 835.82C336.321 835.82 337.556 836.275 338.509 837.185C339.506 838.052 340.004 839.157 340.004 840.5C340.004 841.93 339.527 843.143 338.574 844.14C337.621 845.093 336.364 845.57 334.804 845.57ZM374.133 886V878.98L373.678 877.485V865.2C373.678 862.817 372.963 860.975 371.533 859.675C370.103 858.332 367.936 857.66 365.033 857.66C363.083 857.66 361.155 857.963 359.248 858.57C357.385 859.177 355.803 860.022 354.503 861.105L351.318 855.19C353.181 853.76 355.391 852.698 357.948 852.005C360.548 851.268 363.235 850.9 366.008 850.9C371.035 850.9 374.913 852.113 377.643 854.54C380.416 856.923 381.803 860.628 381.803 865.655V886H374.133ZM363.213 886.455C360.613 886.455 358.338 886.022 356.388 885.155C354.438 884.245 352.921 883.01 351.838 881.45C350.798 879.847 350.278 878.048 350.278 876.055C350.278 874.105 350.733 872.35 351.643 870.79C352.596 869.23 354.135 867.995 356.258 867.085C358.381 866.175 361.198 865.72 364.708 865.72H374.783V871.115H365.293C362.52 871.115 360.656 871.57 359.703 872.48C358.75 873.347 358.273 874.43 358.273 875.73C358.273 877.203 358.858 878.373 360.028 879.24C361.198 880.107 362.823 880.54 364.903 880.54C366.896 880.54 368.673 880.085 370.233 879.175C371.836 878.265 372.985 876.922 373.678 875.145L375.043 880.02C374.263 882.057 372.855 883.638 370.818 884.765C368.825 885.892 366.29 886.455 363.213 886.455ZM415.175 850.9C417.949 850.9 420.419 851.442 422.585 852.525C424.795 853.608 426.529 855.277 427.785 857.53C429.042 859.74 429.67 862.6 429.67 866.11V886H421.545V867.15C421.545 864.073 420.809 861.777 419.335 860.26C417.905 858.743 415.89 857.985 413.29 857.985C411.384 857.985 409.694 858.375 408.22 859.155C406.747 859.935 405.599 861.105 404.775 862.665C403.995 864.182 403.605 866.11 403.605 868.45V886H395.48V851.29H403.215V860.65L401.85 857.79C403.064 855.58 404.819 853.89 407.115 852.72C409.455 851.507 412.142 850.9 415.175 850.9ZM486.281 886.65C482.815 886.65 479.586 886.087 476.596 884.96C473.65 883.79 471.071 882.165 468.861 880.085C466.695 877.962 465.005 875.47 463.791 872.61C462.578 869.75 461.971 866.63 461.971 863.25C461.971 859.87 462.578 856.75 463.791 853.89C465.005 851.03 466.716 848.56 468.926 846.48C471.136 844.357 473.715 842.732 476.661 841.605C479.608 840.435 482.836 839.85 486.346 839.85C490.073 839.85 493.475 840.5 496.551 841.8C499.628 843.057 502.228 844.942 504.351 847.455L498.891 852.59C497.245 850.813 495.403 849.492 493.366 848.625C491.33 847.715 489.12 847.26 486.736 847.26C484.353 847.26 482.165 847.65 480.171 848.43C478.221 849.21 476.51 850.315 475.036 851.745C473.606 853.175 472.48 854.865 471.656 856.815C470.876 858.765 470.486 860.91 470.486 863.25C470.486 865.59 470.876 867.735 471.656 869.685C472.48 871.635 473.606 873.325 475.036 874.755C476.51 876.185 478.221 877.29 480.171 878.07C482.165 878.85 484.353 879.24 486.736 879.24C489.12 879.24 491.33 878.807 493.366 877.94C495.403 877.03 497.245 875.665 498.891 873.845L504.351 879.045C502.228 881.515 499.628 883.4 496.551 884.7C493.475 886 490.051 886.65 486.281 886.65ZM529.185 886.455C525.632 886.455 522.468 885.697 519.695 884.18C516.922 882.62 514.733 880.497 513.13 877.81C511.527 875.123 510.725 872.068 510.725 868.645C510.725 865.178 511.527 862.123 513.13 859.48C514.733 856.793 516.922 854.692 519.695 853.175C522.468 851.658 525.632 850.9 529.185 850.9C532.782 850.9 535.967 851.658 538.74 853.175C541.557 854.692 543.745 856.772 545.305 859.415C546.908 862.058 547.71 865.135 547.71 868.645C547.71 872.068 546.908 875.123 545.305 877.81C543.745 880.497 541.557 882.62 538.74 884.18C535.967 885.697 532.782 886.455 529.185 886.455ZM529.185 879.5C531.178 879.5 532.955 879.067 534.515 878.2C536.075 877.333 537.288 876.077 538.155 874.43C539.065 872.783 539.52 870.855 539.52 868.645C539.52 866.392 539.065 864.463 538.155 862.86C537.288 861.213 536.075 859.957 534.515 859.09C532.955 858.223 531.2 857.79 529.25 857.79C527.257 857.79 525.48 858.223 523.92 859.09C522.403 859.957 521.19 861.213 520.28 862.86C519.37 864.463 518.915 866.392 518.915 868.645C518.915 870.855 519.37 872.783 520.28 874.43C521.19 876.077 522.403 877.333 523.92 878.2C525.48 879.067 527.235 879.5 529.185 879.5ZM558.729 886V837.77H566.854V886H558.729ZM580.768 886V837.77H588.893V886H580.768ZM619.123 886.455C615.266 886.455 611.886 885.697 608.983 884.18C606.123 882.62 603.891 880.497 602.288 877.81C600.728 875.123 599.948 872.068 599.948 868.645C599.948 865.178 600.706 862.123 602.223 859.48C603.783 856.793 605.906 854.692 608.593 853.175C611.323 851.658 614.421 850.9 617.888 850.9C621.268 850.9 624.279 851.637 626.923 853.11C629.566 854.583 631.646 856.663 633.163 859.35C634.679 862.037 635.438 865.2 635.438 868.84C635.438 869.187 635.416 869.577 635.373 870.01C635.373 870.443 635.351 870.855 635.308 871.245H606.383V865.85H631.018L627.833 867.54C627.876 865.547 627.464 863.792 626.598 862.275C625.731 860.758 624.539 859.567 623.023 858.7C621.549 857.833 619.838 857.4 617.888 857.4C615.894 857.4 614.139 857.833 612.623 858.7C611.149 859.567 609.979 860.78 609.113 862.34C608.289 863.857 607.878 865.655 607.878 867.735V869.035C607.878 871.115 608.354 872.957 609.308 874.56C610.261 876.163 611.604 877.398 613.338 878.265C615.071 879.132 617.064 879.565 619.318 879.565C621.268 879.565 623.023 879.262 624.583 878.655C626.143 878.048 627.529 877.095 628.743 875.795L633.098 880.8C631.538 882.62 629.566 884.028 627.183 885.025C624.843 885.978 622.156 886.455 619.123 886.455ZM662.222 899.065C659.015 899.065 655.874 898.632 652.797 897.765C649.764 896.942 647.272 895.728 645.322 894.125L648.962 888.015C650.479 889.272 652.385 890.268 654.682 891.005C657.022 891.785 659.384 892.175 661.767 892.175C665.58 892.175 668.375 891.287 670.152 889.51C671.929 887.777 672.817 885.155 672.817 881.645V875.47L673.467 867.605L673.207 859.74V851.29H680.942V880.735C680.942 887.018 679.339 891.633 676.132 894.58C672.925 897.57 668.289 899.065 662.222 899.065ZM661.182 884.44C657.889 884.44 654.899 883.747 652.212 882.36C649.569 880.93 647.467 878.958 645.907 876.445C644.39 873.932 643.632 870.985 643.632 867.605C643.632 864.268 644.39 861.343 645.907 858.83C647.467 856.317 649.569 854.367 652.212 852.98C654.899 851.593 657.889 850.9 661.182 850.9C664.129 850.9 666.772 851.485 669.112 852.655C671.452 853.825 673.315 855.645 674.702 858.115C676.132 860.585 676.847 863.748 676.847 867.605C676.847 871.462 676.132 874.647 674.702 877.16C673.315 879.63 671.452 881.472 669.112 882.685C666.772 883.855 664.129 884.44 661.182 884.44ZM662.417 877.55C664.454 877.55 666.274 877.138 667.877 876.315C669.48 875.448 670.715 874.278 671.582 872.805C672.492 871.288 672.947 869.555 672.947 867.605C672.947 865.655 672.492 863.943 671.582 862.47C670.715 860.953 669.48 859.805 667.877 859.025C666.274 858.202 664.454 857.79 662.417 857.79C660.38 857.79 658.539 858.202 656.892 859.025C655.289 859.805 654.032 860.953 653.122 862.47C652.255 863.943 651.822 865.655 651.822 867.605C651.822 869.555 652.255 871.288 653.122 872.805C654.032 874.278 655.289 875.448 656.892 876.315C658.539 877.138 660.38 877.55 662.417 877.55ZM711.189 886.455C707.332 886.455 703.952 885.697 701.049 884.18C698.189 882.62 695.957 880.497 694.354 877.81C692.794 875.123 692.014 872.068 692.014 868.645C692.014 865.178 692.772 862.123 694.289 859.48C695.849 856.793 697.972 854.692 700.659 853.175C703.389 851.658 706.487 850.9 709.954 850.9C713.334 850.9 716.346 851.637 718.989 853.11C721.632 854.583 723.712 856.663 725.229 859.35C726.746 862.037 727.504 865.2 727.504 868.84C727.504 869.187 727.482 869.577 727.439 870.01C727.439 870.443 727.417 870.855 727.374 871.245H698.449V865.85H723.084L719.899 867.54C719.942 865.547 719.531 863.792 718.664 862.275C717.797 860.758 716.606 859.567 715.089 858.7C713.616 857.833 711.904 857.4 709.954 857.4C707.961 857.4 706.206 857.833 704.689 858.7C703.216 859.567 702.046 860.78 701.179 862.34C700.356 863.857 699.944 865.655 699.944 867.735V869.035C699.944 871.115 700.421 872.957 701.374 874.56C702.327 876.163 703.671 877.398 705.404 878.265C707.137 879.132 709.131 879.565 711.384 879.565C713.334 879.565 715.089 879.262 716.649 878.655C718.209 878.048 719.596 877.095 720.809 875.795L725.164 880.8C723.604 882.62 721.632 884.028 719.249 885.025C716.909 885.978 714.222 886.455 711.189 886.455ZM760.552 886V840.5H779.272C783.302 840.5 786.747 841.15 789.607 842.45C792.511 843.75 794.742 845.613 796.302 848.04C797.862 850.467 798.642 853.348 798.642 856.685C798.642 860.022 797.862 862.903 796.302 865.33C794.742 867.713 792.511 869.555 789.607 870.855C786.747 872.112 783.302 872.74 779.272 872.74H765.232L769.002 868.905V886H760.552ZM790.322 886L778.817 869.49H787.852L799.422 886H790.322ZM769.002 869.815L765.232 865.785H778.882C782.609 865.785 785.404 864.983 787.267 863.38C789.174 861.777 790.127 859.545 790.127 856.685C790.127 853.782 789.174 851.55 787.267 849.99C785.404 848.43 782.609 847.65 778.882 847.65H765.232L769.002 843.49V869.815ZM826.166 886.455C822.613 886.455 819.45 885.697 816.676 884.18C813.903 882.62 811.715 880.497 810.111 877.81C808.508 875.123 807.706 872.068 807.706 868.645C807.706 865.178 808.508 862.123 810.111 859.48C811.715 856.793 813.903 854.692 816.676 853.175C819.45 851.658 822.613 850.9 826.166 850.9C829.763 850.9 832.948 851.658 835.721 853.175C838.538 854.692 840.726 856.772 842.286 859.415C843.89 862.058 844.691 865.135 844.691 868.645C844.691 872.068 843.89 875.123 842.286 877.81C840.726 880.497 838.538 882.62 835.721 884.18C832.948 885.697 829.763 886.455 826.166 886.455ZM826.166 879.5C828.16 879.5 829.936 879.067 831.496 878.2C833.056 877.333 834.27 876.077 835.136 874.43C836.046 872.783 836.501 870.855 836.501 868.645C836.501 866.392 836.046 864.463 835.136 862.86C834.27 861.213 833.056 859.957 831.496 859.09C829.936 858.223 828.181 857.79 826.231 857.79C824.238 857.79 822.461 858.223 820.901 859.09C819.385 859.957 818.171 861.213 817.261 862.86C816.351 864.463 815.896 866.392 815.896 868.645C815.896 870.855 816.351 872.783 817.261 874.43C818.171 876.077 819.385 877.333 820.901 878.2C822.461 879.067 824.216 879.5 826.166 879.5ZM871.311 886.455C867.758 886.455 864.594 885.697 861.821 884.18C859.048 882.62 856.859 880.497 855.256 877.81C853.653 875.123 852.851 872.068 852.851 868.645C852.851 865.178 853.653 862.123 855.256 859.48C856.859 856.793 859.048 854.692 861.821 853.175C864.594 851.658 867.758 850.9 871.311 850.9C874.908 850.9 878.093 851.658 880.866 853.175C883.683 854.692 885.871 856.772 887.431 859.415C889.034 862.058 889.836 865.135 889.836 868.645C889.836 872.068 889.034 875.123 887.431 877.81C885.871 880.497 883.683 882.62 880.866 884.18C878.093 885.697 874.908 886.455 871.311 886.455ZM871.311 879.5C873.304 879.5 875.081 879.067 876.641 878.2C878.201 877.333 879.414 876.077 880.281 874.43C881.191 872.783 881.646 870.855 881.646 868.645C881.646 866.392 881.191 864.463 880.281 862.86C879.414 861.213 878.201 859.957 876.641 859.09C875.081 858.223 873.326 857.79 871.376 857.79C869.383 857.79 867.606 858.223 866.046 859.09C864.529 859.957 863.316 861.213 862.406 862.86C861.496 864.463 861.041 866.392 861.041 868.645C861.041 870.855 861.496 872.783 862.406 874.43C863.316 876.077 864.529 877.333 866.046 878.2C867.606 879.067 869.361 879.5 871.311 879.5ZM944.665 850.9C947.439 850.9 949.887 851.442 952.01 852.525C954.177 853.608 955.867 855.277 957.08 857.53C958.294 859.74 958.9 862.6 958.9 866.11V886H950.775V867.15C950.775 864.073 950.104 861.777 948.76 860.26C947.417 858.743 945.489 857.985 942.975 857.985C941.199 857.985 939.617 858.375 938.23 859.155C936.887 859.935 935.825 861.083 935.045 862.6C934.309 864.117 933.94 866.045 933.94 868.385V886H925.815V867.15C925.815 864.073 925.144 861.777 923.8 860.26C922.457 858.743 920.529 857.985 918.015 857.985C916.239 857.985 914.657 858.375 913.27 859.155C911.927 859.935 910.865 861.083 910.085 862.6C909.349 864.117 908.98 866.045 908.98 868.385V886H900.855V851.29H908.59V860.52L907.225 857.79C908.395 855.537 910.085 853.825 912.295 852.655C914.549 851.485 917.105 850.9 919.965 850.9C923.215 850.9 926.032 851.702 928.415 853.305C930.842 854.908 932.445 857.335 933.225 860.585L930.04 859.48C931.167 856.88 933.03 854.8 935.63 853.24C938.23 851.68 941.242 850.9 944.665 850.9ZM1008.63 886.65C1005.08 886.65 1001.68 886.152 998.427 885.155C995.177 884.115 992.599 882.793 990.692 881.19L993.617 874.625C995.437 876.055 997.69 877.247 1000.38 878.2C1003.06 879.153 1005.82 879.63 1008.63 879.63C1011.02 879.63 1012.94 879.37 1014.42 878.85C1015.89 878.33 1016.97 877.637 1017.67 876.77C1018.36 875.86 1018.71 874.842 1018.71 873.715C1018.71 872.328 1018.21 871.223 1017.21 870.4C1016.22 869.533 1014.92 868.862 1013.31 868.385C1011.75 867.865 1010 867.388 1008.05 866.955C1006.14 866.522 1004.21 866.023 1002.26 865.46C1000.36 864.853 998.6 864.095 996.997 863.185C995.437 862.232 994.159 860.975 993.162 859.415C992.165 857.855 991.667 855.862 991.667 853.435C991.667 850.965 992.317 848.712 993.617 846.675C994.96 844.595 996.975 842.948 999.662 841.735C1002.39 840.478 1005.84 839.85 1010 839.85C1012.73 839.85 1015.44 840.197 1018.12 840.89C1020.81 841.583 1023.15 842.58 1025.14 843.88L1022.48 850.445C1020.44 849.232 1018.34 848.343 1016.17 847.78C1014.01 847.173 1011.93 846.87 1009.93 846.87C1007.59 846.87 1005.69 847.152 1004.21 847.715C1002.78 848.278 1001.72 849.015 1001.03 849.925C1000.38 850.835 1000.05 851.875 1000.05 853.045C1000.05 854.432 1000.53 855.558 1001.48 856.425C1002.48 857.248 1003.76 857.898 1005.32 858.375C1006.92 858.852 1008.7 859.328 1010.65 859.805C1012.6 860.238 1014.53 860.737 1016.43 861.3C1018.38 861.863 1020.14 862.6 1021.7 863.51C1023.3 864.42 1024.58 865.655 1025.53 867.215C1026.53 868.775 1027.03 870.747 1027.03 873.13C1027.03 875.557 1026.36 877.81 1025.01 879.89C1023.71 881.927 1021.7 883.573 1018.97 884.83C1016.24 886.043 1012.79 886.65 1008.63 886.65ZM1053.8 886.455C1050.16 886.455 1046.91 885.697 1044.05 884.18C1041.23 882.62 1039.02 880.497 1037.42 877.81C1035.82 875.123 1035.02 872.068 1035.02 868.645C1035.02 865.178 1035.82 862.123 1037.42 859.48C1039.02 856.793 1041.23 854.692 1044.05 853.175C1046.91 851.658 1050.16 850.9 1053.8 850.9C1057.18 850.9 1060.15 851.593 1062.71 852.98C1065.31 854.323 1067.28 856.317 1068.62 858.96L1062.38 862.6C1061.34 860.953 1060.06 859.74 1058.55 858.96C1057.07 858.18 1055.47 857.79 1053.74 857.79C1051.74 857.79 1049.94 858.223 1048.34 859.09C1046.74 859.957 1045.48 861.213 1044.57 862.86C1043.66 864.463 1043.21 866.392 1043.21 868.645C1043.21 870.898 1043.66 872.848 1044.57 874.495C1045.48 876.098 1046.74 877.333 1048.34 878.2C1049.94 879.067 1051.74 879.5 1053.74 879.5C1055.47 879.5 1057.07 879.11 1058.55 878.33C1060.06 877.55 1061.34 876.337 1062.38 874.69L1068.62 878.33C1067.28 880.93 1065.31 882.945 1062.71 884.375C1060.15 885.762 1057.18 886.455 1053.8 886.455ZM1098.27 850.9C1101.05 850.9 1103.52 851.442 1105.68 852.525C1107.89 853.608 1109.63 855.277 1110.88 857.53C1112.14 859.74 1112.77 862.6 1112.77 866.11V886H1104.64V867.15C1104.64 864.073 1103.91 861.777 1102.43 860.26C1101 858.743 1098.99 857.985 1096.39 857.985C1094.48 857.985 1092.79 858.375 1091.32 859.155C1089.84 859.935 1088.7 861.105 1087.87 862.665C1087.09 864.182 1086.7 866.11 1086.7 868.45V886H1078.58V837.77H1086.7V860.65L1084.95 857.79C1086.16 855.58 1087.92 853.89 1090.21 852.72C1092.55 851.507 1095.24 850.9 1098.27 850.9ZM1142.7 886.455C1138.85 886.455 1135.47 885.697 1132.56 884.18C1129.7 882.62 1127.47 880.497 1125.87 877.81C1124.31 875.123 1123.53 872.068 1123.53 868.645C1123.53 865.178 1124.29 862.123 1125.8 859.48C1127.36 856.793 1129.49 854.692 1132.17 853.175C1134.9 851.658 1138 850.9 1141.47 850.9C1144.85 850.9 1147.86 851.637 1150.5 853.11C1153.15 854.583 1155.23 856.663 1156.74 859.35C1158.26 862.037 1159.02 865.2 1159.02 868.84C1159.02 869.187 1159 869.577 1158.95 870.01C1158.95 870.443 1158.93 870.855 1158.89 871.245H1129.96V865.85H1154.6L1151.41 867.54C1151.46 865.547 1151.04 863.792 1150.18 862.275C1149.31 860.758 1148.12 859.567 1146.6 858.7C1145.13 857.833 1143.42 857.4 1141.47 857.4C1139.47 857.4 1137.72 857.833 1136.2 858.7C1134.73 859.567 1133.56 860.78 1132.69 862.34C1131.87 863.857 1131.46 865.655 1131.46 867.735V869.035C1131.46 871.115 1131.93 872.957 1132.89 874.56C1133.84 876.163 1135.18 877.398 1136.92 878.265C1138.65 879.132 1140.64 879.565 1142.9 879.565C1144.85 879.565 1146.6 879.262 1148.16 878.655C1149.72 878.048 1151.11 877.095 1152.32 875.795L1156.68 880.8C1155.12 882.62 1153.15 884.028 1150.76 885.025C1148.42 885.978 1145.74 886.455 1142.7 886.455ZM1184.76 886.455C1181.43 886.455 1178.41 885.718 1175.73 884.245C1173.08 882.728 1171 880.648 1169.49 878.005C1167.97 875.362 1167.21 872.242 1167.21 868.645C1167.21 865.048 1167.97 861.928 1169.49 859.285C1171 856.642 1173.08 854.583 1175.73 853.11C1178.41 851.637 1181.43 850.9 1184.76 850.9C1187.67 850.9 1190.27 851.55 1192.56 852.85C1194.86 854.107 1196.68 856.035 1198.02 858.635C1199.37 861.235 1200.04 864.572 1200.04 868.645C1200.04 872.675 1199.39 876.012 1198.09 878.655C1196.79 881.255 1194.99 883.205 1192.69 884.505C1190.4 885.805 1187.75 886.455 1184.76 886.455ZM1185.74 879.5C1187.69 879.5 1189.42 879.067 1190.94 878.2C1192.5 877.333 1193.73 876.077 1194.64 874.43C1195.6 872.783 1196.07 870.855 1196.07 868.645C1196.07 866.392 1195.6 864.463 1194.64 862.86C1193.73 861.213 1192.5 859.957 1190.94 859.09C1189.42 858.223 1187.69 857.79 1185.74 857.79C1183.79 857.79 1182.03 858.223 1180.47 859.09C1178.96 859.957 1177.72 861.213 1176.77 862.86C1175.86 864.463 1175.4 866.392 1175.4 868.645C1175.4 870.855 1175.86 872.783 1176.77 874.43C1177.72 876.077 1178.96 877.333 1180.47 878.2C1182.03 879.067 1183.79 879.5 1185.74 879.5ZM1196.27 886V877.81L1196.59 868.58L1195.94 859.35V837.77H1204V886H1196.27ZM1232.64 886.455C1229.69 886.455 1227.09 885.913 1224.84 884.83C1222.58 883.703 1220.83 882.013 1219.57 879.76C1218.31 877.463 1217.69 874.582 1217.69 871.115V851.29H1225.81V870.01C1225.81 873.13 1226.5 875.47 1227.89 877.03C1229.32 878.547 1231.34 879.305 1233.94 879.305C1235.84 879.305 1237.49 878.915 1238.88 878.135C1240.31 877.355 1241.41 876.185 1242.19 874.625C1243.01 873.065 1243.43 871.137 1243.43 868.84V851.29H1251.55V886H1243.82V876.64L1245.18 879.5C1244.01 881.753 1242.3 883.487 1240.05 884.7C1237.79 885.87 1235.32 886.455 1232.64 886.455ZM1265.44 886V837.77H1273.56V886H1265.44ZM1287.48 886V851.29H1295.6V886H1287.48ZM1291.57 845.57C1290.06 845.57 1288.8 845.093 1287.8 844.14C1286.85 843.187 1286.37 842.038 1286.37 840.695C1286.37 839.308 1286.85 838.16 1287.8 837.25C1288.8 836.297 1290.06 835.82 1291.57 835.82C1293.09 835.82 1294.33 836.275 1295.28 837.185C1296.28 838.052 1296.77 839.157 1296.77 840.5C1296.77 841.93 1296.3 843.143 1295.34 844.14C1294.39 845.093 1293.13 845.57 1291.57 845.57ZM1329.21 850.9C1331.99 850.9 1334.46 851.442 1336.62 852.525C1338.83 853.608 1340.57 855.277 1341.82 857.53C1343.08 859.74 1343.71 862.6 1343.71 866.11V886H1335.58V867.15C1335.58 864.073 1334.85 861.777 1333.37 860.26C1331.94 858.743 1329.93 857.985 1327.33 857.985C1325.42 857.985 1323.73 858.375 1322.26 859.155C1320.78 859.935 1319.64 861.105 1318.81 862.665C1318.03 864.182 1317.64 866.11 1317.64 868.45V886H1309.52V851.29H1317.25V860.65L1315.89 857.79C1317.1 855.58 1318.86 853.89 1321.15 852.72C1323.49 851.507 1326.18 850.9 1329.21 850.9ZM1373.06 899.065C1369.85 899.065 1366.71 898.632 1363.63 897.765C1360.6 896.942 1358.11 895.728 1356.16 894.125L1359.8 888.015C1361.31 889.272 1363.22 890.268 1365.52 891.005C1367.86 891.785 1370.22 892.175 1372.6 892.175C1376.42 892.175 1379.21 891.287 1380.99 889.51C1382.76 887.777 1383.65 885.155 1383.65 881.645V875.47L1384.3 867.605L1384.04 859.74V851.29H1391.78V880.735C1391.78 887.018 1390.17 891.633 1386.97 894.58C1383.76 897.57 1379.12 899.065 1373.06 899.065ZM1372.02 884.44C1368.72 884.44 1365.73 883.747 1363.05 882.36C1360.4 880.93 1358.3 878.958 1356.74 876.445C1355.23 873.932 1354.47 870.985 1354.47 867.605C1354.47 864.268 1355.23 861.343 1356.74 858.83C1358.3 856.317 1360.4 854.367 1363.05 852.98C1365.73 851.593 1368.72 850.9 1372.02 850.9C1374.96 850.9 1377.61 851.485 1379.95 852.655C1382.29 853.825 1384.15 855.645 1385.54 858.115C1386.97 860.585 1387.68 863.748 1387.68 867.605C1387.68 871.462 1386.97 874.647 1385.54 877.16C1384.15 879.63 1382.29 881.472 1379.95 882.685C1377.61 883.855 1374.96 884.44 1372.02 884.44ZM1373.25 877.55C1375.29 877.55 1377.11 877.138 1378.71 876.315C1380.32 875.448 1381.55 874.278 1382.42 872.805C1383.33 871.288 1383.78 869.555 1383.78 867.605C1383.78 865.655 1383.33 863.943 1382.42 862.47C1381.55 860.953 1380.32 859.805 1378.71 859.025C1377.11 858.202 1375.29 857.79 1373.25 857.79C1371.22 857.79 1369.37 858.202 1367.73 859.025C1366.12 859.805 1364.87 860.953 1363.96 862.47C1363.09 863.943 1362.66 865.655 1362.66 867.605C1362.66 869.555 1363.09 871.288 1363.96 872.805C1364.87 874.278 1366.12 875.448 1367.73 876.315C1369.37 877.138 1371.22 877.55 1373.25 877.55ZM1441.81 886.65C1438.26 886.65 1434.85 886.152 1431.6 885.155C1428.35 884.115 1425.78 882.793 1423.87 881.19L1426.79 874.625C1428.61 876.055 1430.87 877.247 1433.55 878.2C1436.24 879.153 1438.99 879.63 1441.81 879.63C1444.19 879.63 1446.12 879.37 1447.59 878.85C1449.07 878.33 1450.15 877.637 1450.84 876.77C1451.54 875.86 1451.88 874.842 1451.88 873.715C1451.88 872.328 1451.39 871.223 1450.39 870.4C1449.39 869.533 1448.09 868.862 1446.49 868.385C1444.93 867.865 1443.17 867.388 1441.22 866.955C1439.32 866.522 1437.39 866.023 1435.44 865.46C1433.53 864.853 1431.78 864.095 1430.17 863.185C1428.61 862.232 1427.34 860.975 1426.34 859.415C1425.34 857.855 1424.84 855.862 1424.84 853.435C1424.84 850.965 1425.49 848.712 1426.79 846.675C1428.14 844.595 1430.15 842.948 1432.84 841.735C1435.57 840.478 1439.01 839.85 1443.17 839.85C1445.9 839.85 1448.61 840.197 1451.3 840.89C1453.99 841.583 1456.33 842.58 1458.32 843.88L1455.65 850.445C1453.62 849.232 1451.52 848.343 1449.35 847.78C1447.18 847.173 1445.1 846.87 1443.11 846.87C1440.77 846.87 1438.86 847.152 1437.39 847.715C1435.96 848.278 1434.9 849.015 1434.2 849.925C1433.55 850.835 1433.23 851.875 1433.23 853.045C1433.23 854.432 1433.71 855.558 1434.66 856.425C1435.66 857.248 1436.93 857.898 1438.49 858.375C1440.1 858.852 1441.87 859.328 1443.82 859.805C1445.77 860.238 1447.7 860.737 1449.61 861.3C1451.56 861.863 1453.31 862.6 1454.87 863.51C1456.48 864.42 1457.76 865.655 1458.71 867.215C1459.71 868.775 1460.2 870.747 1460.2 873.13C1460.2 875.557 1459.53 877.81 1458.19 879.89C1456.89 881.927 1454.87 883.573 1452.14 884.83C1449.41 886.043 1445.97 886.65 1441.81 886.65ZM1473.28 899.065C1471.59 899.065 1469.9 898.783 1468.21 898.22C1466.52 897.657 1465.11 896.877 1463.98 895.88L1467.23 889.9C1468.06 890.637 1468.99 891.222 1470.03 891.655C1471.07 892.088 1472.13 892.305 1473.21 892.305C1474.69 892.305 1475.88 891.937 1476.79 891.2C1477.7 890.463 1478.54 889.228 1479.32 887.495L1481.34 882.945L1481.99 881.97L1495.12 851.29H1502.92L1486.67 888.795C1485.58 891.395 1484.37 893.453 1483.03 894.97C1481.73 896.487 1480.25 897.548 1478.61 898.155C1477 898.762 1475.23 899.065 1473.28 899.065ZM1480.43 887.235L1464.76 851.29H1473.21L1485.95 881.255L1480.43 887.235ZM1521.53 886.455C1518.62 886.455 1515.83 886.087 1513.14 885.35C1510.5 884.57 1508.4 883.638 1506.84 882.555L1509.96 876.38C1511.52 877.377 1513.38 878.2 1515.55 878.85C1517.71 879.5 1519.88 879.825 1522.05 879.825C1524.6 879.825 1526.45 879.478 1527.57 878.785C1528.74 878.092 1529.33 877.16 1529.33 875.99C1529.33 875.037 1528.94 874.322 1528.16 873.845C1527.38 873.325 1526.36 872.935 1525.1 872.675C1523.85 872.415 1522.44 872.177 1520.88 871.96C1519.36 871.743 1517.82 871.462 1516.26 871.115C1514.75 870.725 1513.36 870.183 1512.1 869.49C1510.85 868.753 1509.83 867.778 1509.05 866.565C1508.27 865.352 1507.88 863.748 1507.88 861.755C1507.88 859.545 1508.51 857.638 1509.76 856.035C1511.02 854.388 1512.77 853.132 1515.03 852.265C1517.32 851.355 1520.03 850.9 1523.15 850.9C1525.49 850.9 1527.85 851.16 1530.24 851.68C1532.62 852.2 1534.59 852.937 1536.15 853.89L1533.03 860.065C1531.39 859.068 1529.72 858.397 1528.03 858.05C1526.38 857.66 1524.73 857.465 1523.09 857.465C1520.62 857.465 1518.78 857.833 1517.56 858.57C1516.39 859.307 1515.81 860.238 1515.81 861.365C1515.81 862.405 1516.2 863.185 1516.98 863.705C1517.76 864.225 1518.78 864.637 1520.03 864.94C1521.29 865.243 1522.68 865.503 1524.19 865.72C1525.75 865.893 1527.29 866.175 1528.81 866.565C1530.32 866.955 1531.71 867.497 1532.97 868.19C1534.27 868.84 1535.31 869.772 1536.09 870.985C1536.87 872.198 1537.26 873.78 1537.26 875.73C1537.26 877.897 1536.61 879.782 1535.31 881.385C1534.05 882.988 1532.25 884.245 1529.91 885.155C1527.57 886.022 1524.78 886.455 1521.53 886.455ZM1560.57 886.455C1556.76 886.455 1553.81 885.48 1551.73 883.53C1549.65 881.537 1548.61 878.612 1548.61 874.755V843.62H1556.73V874.56C1556.73 876.207 1557.15 877.485 1557.97 878.395C1558.84 879.305 1560.03 879.76 1561.54 879.76C1563.36 879.76 1564.88 879.283 1566.09 878.33L1568.37 884.115C1567.42 884.895 1566.25 885.48 1564.86 885.87C1563.47 886.26 1562.04 886.455 1560.57 886.455ZM1542.89 858.05V851.55H1566.03V858.05H1542.89ZM1593.48 886.455C1589.62 886.455 1586.24 885.697 1583.34 884.18C1580.48 882.62 1578.24 880.497 1576.64 877.81C1575.08 875.123 1574.3 872.068 1574.3 868.645C1574.3 865.178 1575.06 862.123 1576.58 859.48C1578.14 856.793 1580.26 854.692 1582.95 853.175C1585.68 851.658 1588.77 850.9 1592.24 850.9C1595.62 850.9 1598.63 851.637 1601.28 853.11C1603.92 854.583 1606 856.663 1607.52 859.35C1609.03 862.037 1609.79 865.2 1609.79 868.84C1609.79 869.187 1609.77 869.577 1609.73 870.01C1609.73 870.443 1609.7 870.855 1609.66 871.245H1580.74V865.85H1605.37L1602.19 867.54C1602.23 865.547 1601.82 863.792 1600.95 862.275C1600.08 860.758 1598.89 859.567 1597.38 858.7C1595.9 857.833 1594.19 857.4 1592.24 857.4C1590.25 857.4 1588.49 857.833 1586.98 858.7C1585.5 859.567 1584.33 860.78 1583.47 862.34C1582.64 863.857 1582.23 865.655 1582.23 867.735V869.035C1582.23 871.115 1582.71 872.957 1583.66 874.56C1584.61 876.163 1585.96 877.398 1587.69 878.265C1589.42 879.132 1591.42 879.565 1593.67 879.565C1595.62 879.565 1597.38 879.262 1598.94 878.655C1600.5 878.048 1601.88 877.095 1603.1 875.795L1607.45 880.8C1605.89 882.62 1603.92 884.028 1601.54 885.025C1599.2 885.978 1596.51 886.455 1593.48 886.455ZM1664.65 850.9C1667.43 850.9 1669.88 851.442 1672 852.525C1674.17 853.608 1675.86 855.277 1677.07 857.53C1678.28 859.74 1678.89 862.6 1678.89 866.11V886H1670.76V867.15C1670.76 864.073 1670.09 861.777 1668.75 860.26C1667.41 858.743 1665.48 857.985 1662.96 857.985C1661.19 857.985 1659.61 858.375 1658.22 859.155C1656.88 859.935 1655.81 861.083 1655.03 862.6C1654.3 864.117 1653.93 866.045 1653.93 868.385V886H1645.8V867.15C1645.8 864.073 1645.13 861.777 1643.79 860.26C1642.45 858.743 1640.52 857.985 1638 857.985C1636.23 857.985 1634.65 858.375 1633.26 859.155C1631.92 859.935 1630.85 861.083 1630.07 862.6C1629.34 864.117 1628.97 866.045 1628.97 868.385V886H1620.84V851.29H1628.58V860.52L1627.21 857.79C1628.38 855.537 1630.07 853.825 1632.28 852.655C1634.54 851.485 1637.09 850.9 1639.95 850.9C1643.2 850.9 1646.02 851.702 1648.4 853.305C1650.83 854.908 1652.43 857.335 1653.21 860.585L1650.03 859.48C1651.16 856.88 1653.02 854.8 1655.62 853.24C1658.22 851.68 1661.23 850.9 1664.65 850.9Z" fill="#143755"/>
<path d="M1491 434.5V385H1552V434.5H1491Z" fill="#143755"/>
<path d="M379 434.5V385H440V434.5H379Z" fill="#143755"/>
<path d="M815.5 271L820 260H1116L1120 271H815.5Z" fill="#AFB5B5"/>
</svg>
