<svg width="1920" height="1080" viewBox="0 0 1920 1080" fill="none" xmlns="http://www.w3.org/2000/svg">
<path d="M973.442 351.972V299.491H1074.23V351.972H973.442Z" fill="#6182A1"/>
<path d="M857.871 351.972V299.491H958.66V351.972H857.871Z" fill="#6182A1"/>
<path d="M1087.67 351.972V298.146H1154.86V351.972H1087.67Z" fill="#6182A1"/>
<path d="M777.912 351.299V299.491H845.776V351.299H777.912Z" fill="#6182A1"/>
<path d="M778.248 524.215V463.661H846.784V524.215H778.248Z" fill="#6182A1"/>
<path d="M1086.33 524.215V463.661H1154.86V524.215H1086.33Z" fill="#6182A1"/>
<path d="M778.583 629.176V540.363H847.12V629.176H778.583Z" fill="#6182A1"/>
<path d="M777.24 790.654V645.324H845.776V790.654H777.24Z" fill="#315470"/>
<path d="M1087.67 792V646.67H1156.21V792H1087.67Z" fill="#315470"/>
<path d="M1087.67 629.176V540.363H1156.21V629.176H1087.67Z" fill="#6182A1"/>
<path d="M642.854 350.626V298.818H763.801V350.626H642.854Z" fill="#315470"/>
<path d="M763.801 364.755H642.854V448.859H763.801V364.755Z" fill="#315470"/>
<path d="M763.801 465.006H642.854V522.869H763.801V465.006Z" fill="#315470"/>
<path d="M763.801 540.363H642.854V628.503H763.801V540.363Z" fill="#315470"/>
<path d="M763.801 643.978H642.854V791.327H763.801V643.978Z" fill="#315470"/>
<path d="M1168.3 349.953V298.146H1289.25V349.953H1168.3Z" fill="#315470"/>
<path d="M1289.25 364.083H1168.3V448.186H1289.25V364.083Z" fill="#315470"/>
<path d="M1289.25 464.334H1168.3V522.197H1289.25V464.334Z" fill="#315470"/>
<path d="M1289.25 539.69H1168.3V627.83H1289.25V539.69Z" fill="#315470"/>
<path d="M1289.25 643.305H1168.3V790.654H1289.25V643.305Z" fill="#315470"/>
<path d="M1072.89 664C992.738 627.459 946.322 626.711 860.559 664V791.327H896.171V729.5C896.171 729.5 896.171 676.947 966.723 676.947C1037.28 676.947 1037.28 729.5 1037.28 729.5V791.327H1072.89V664Z" fill="#315470"/>
<path d="M1113 271V253L1125 271H1113Z" fill="#D8DCDC"/>
<path d="M822 271V254L811.5 271H822Z" fill="#D8DCDC"/>
<path d="M844.832 228L820 260H1116L1091.66 228H844.832Z" fill="#86B3D2"/>
<path d="M684.831 254L643 271H812.192L822 254H684.831Z" fill="#315470"/>
<path d="M1247.83 253L1290 271H1125.26L1113 253H1247.83Z" fill="#315470"/>
<path d="M628 298H568.735L529 322H628V298Z" fill="#143755"/>
<path d="M437.244 375.521H353.253V443.476H437.244V375.521Z" fill="#143755" stroke="black"/>
<path d="M1564.07 376.193H1480.08V444.149H1564.07V376.193Z" fill="#143755" stroke="black"/>
<path d="M301.179 486.537H162.582L111.696 524.215H301.179V486.537Z" fill="#848E90"/>
<path d="M1618.49 485.191H1757.09L1807.98 525.561H1618.49V485.191Z" fill="#848E90"/>
<path d="M163.77 386.959V440.112H291.436V388.304L163.77 386.959Z" fill="#143755"/>
<path d="M1627.9 390.996V444.149H1755.57V392.341L1627.9 390.996Z" fill="#143755"/>
<path d="M1305.37 298.146H1364.5L1404.15 322.367H1305.37V298.146Z" fill="#143755"/>
<path d="M1289.92 272.578H642.182V298.818H1289.92V272.578Z" fill="#D9D9D9"/>
<path d="M140.252 374.848V337.17L505.109 336.497V524.215H301.515V473.08H163.77V441.458H291.436V374.848H140.252Z" fill="#F6BEA8"/>
<path d="M1779.76 375.658V337.845L1414.23 337.17V525.561H1618.2V474.243H1756.19V442.507H1628.29V375.658H1779.76Z" fill="#F6BEA7"/>
<path d="M627.4 336.497H517.876V524.215H627.4V336.497Z" fill="#AFB5B5"/>
<path d="M627.4 540.363H517.876V629.849H627.4V540.363Z" fill="#AFB5B5"/>
<path d="M627.4 644.651H517.876V792H627.4V644.651Z" fill="#AFB5B5"/>
<path d="M1404.82 335.824H1305.37V523.82H1404.82V335.824Z" fill="#AFB5B5"/>
<path d="M1404.82 539.991H1305.37V629.609H1404.82V539.991Z" fill="#AFB5B5"/>
<path d="M1404.82 644.433H1305.37V792H1404.82V644.433Z" fill="#AFB5B5"/>
<path d="M1316.84 273L1363 297H1305V273H1316.84Z" fill="#D9D9D9"/>
<path d="M615.959 273L569 297H628V273H615.959Z" fill="#D9D9D9"/>
<path d="M139.581 323.713V269.887L465.465 323.713H139.581Z" fill="#143755"/>
<path d="M1779.08 322.367V268.541L1453.2 322.367H1779.08Z" fill="#143755" stroke="black"/>
<path d="M512.5 318.33L109.344 249.029L386.178 173L529.298 191.166L649.573 228.845L512.5 318.33Z" fill="#86B3D2"/>
<path d="M1410.87 317.658L1809.32 249.029L1532.49 173L1389.37 191.166L1269.09 228.845L1410.87 317.658Z" fill="#85B2D1"/>
<path d="M505.109 540.363H108V629.849H505.109V540.363Z" fill="#E09577"/>
<path d="M1811.34 540.363H1414.23V629.849H1811.34V540.363Z" fill="#DF9577"/>
<path d="M859.215 631.195V485.191H1071.54V631.195H859.215Z" fill="#143755"/>
<path d="M995.616 526.906H934.471V572.659H995.616V526.906Z" fill="white"/>
<path d="M927.079 527.579H865.934V573.331H927.079V527.579Z" fill="white"/>
<path d="M1064.15 526.234H1003.01V571.986H1064.15V526.234Z" fill="white"/>
<path d="M995.616 578.041H934.471V623.793H995.616V578.041Z" fill="white"/>
<path d="M1064.15 578.041H1003.01V623.793H1064.15V578.041Z" fill="white"/>
<circle cx="1034" cy="549" r="19.5" fill="#D9D9D9" stroke="#878484"/>
<path d="M1033.92 559.529H1029.21L1028.54 557.511L1029.21 554.819V536.653L1030.56 535.98L1032.57 536.653V554.147L1043.32 548.764H1046.01V551.455L1033.92 559.529Z" fill="#143755"/>
<path d="M927.079 578.041H865.934V623.793H927.079V578.041Z" fill="#FFF6F6"/>
<path d="M896 487.312V466.688L899.5 466L903 466.688V487.312L899.5 488L896 487.312Z" fill="#D9D9D9" stroke="black"/>
<path d="M1029 487.281V465.719L1032 465L1035 465.719V487.281L1032 488L1029 487.281Z" fill="#D9D9D9" stroke="black"/>
<path d="M797.857 449H781.379L806.486 376.273H826.301L851.372 449H834.895L816.678 392.892H816.109L797.857 449ZM796.827 420.413H835.747V432.416H796.827V420.413ZM925.877 401.734H910.323C910.039 399.722 909.459 397.935 908.583 396.372C907.707 394.786 906.582 393.437 905.209 392.324C903.836 391.211 902.25 390.359 900.451 389.767C898.675 389.175 896.746 388.879 894.662 388.879C890.898 388.879 887.619 389.814 884.826 391.685C882.032 393.531 879.866 396.23 878.327 399.781C876.788 403.309 876.019 407.594 876.019 412.636C876.019 417.821 876.788 422.177 878.327 425.705C879.89 429.232 882.068 431.895 884.861 433.695C887.655 435.494 890.886 436.393 894.556 436.393C896.615 436.393 898.521 436.121 900.273 435.577C902.049 435.032 903.623 434.239 904.996 433.197C906.369 432.132 907.506 430.842 908.405 429.327C909.328 427.812 909.968 426.083 910.323 424.142L925.877 424.213C925.474 427.551 924.468 430.771 922.858 433.872C921.272 436.95 919.13 439.708 916.431 442.146C913.756 444.561 910.56 446.479 906.843 447.899C903.15 449.296 898.971 449.994 894.307 449.994C887.82 449.994 882.02 448.527 876.907 445.591C871.817 442.655 867.792 438.406 864.833 432.842C861.897 427.279 860.429 420.544 860.429 412.636C860.429 404.705 861.921 397.958 864.904 392.395C867.887 386.831 871.935 382.594 877.049 379.682C882.162 376.746 887.915 375.278 894.307 375.278C898.521 375.278 902.427 375.87 906.026 377.054C909.648 378.238 912.856 379.966 915.65 382.239C918.443 384.488 920.716 387.246 922.468 390.513C924.243 393.78 925.38 397.52 925.877 401.734ZM941.903 449V376.273H970.596C976.089 376.273 980.776 377.255 984.659 379.22C988.565 381.161 991.536 383.92 993.572 387.494C995.632 391.045 996.662 395.224 996.662 400.03C996.662 404.859 995.62 409.014 993.537 412.494C991.453 415.951 988.435 418.602 984.481 420.449C980.551 422.295 975.793 423.219 970.206 423.219H950.994V410.861H967.72C970.655 410.861 973.094 410.458 975.035 409.653C976.976 408.848 978.421 407.641 979.368 406.031C980.338 404.421 980.824 402.421 980.824 400.03C980.824 397.615 980.338 395.579 979.368 393.922C978.421 392.265 976.965 391.01 975 390.158C973.058 389.282 970.608 388.844 967.649 388.844H957.279V449H941.903ZM981.179 415.903L999.254 449H982.279L964.595 415.903H981.179ZM1051.98 397.189C1051.7 394.324 1050.48 392.099 1048.32 390.513C1046.17 388.927 1043.25 388.134 1039.55 388.134C1037.04 388.134 1034.92 388.489 1033.2 389.199C1031.47 389.885 1030.14 390.844 1029.22 392.075C1028.32 393.306 1027.87 394.703 1027.87 396.266C1027.82 397.568 1028.09 398.704 1028.69 399.675C1029.3 400.645 1030.14 401.486 1031.21 402.196C1032.27 402.883 1033.5 403.486 1034.9 404.007C1036.3 404.504 1037.79 404.93 1039.37 405.286L1045.91 406.848C1049.08 407.558 1051.99 408.505 1054.64 409.689C1057.3 410.873 1059.59 412.329 1061.53 414.057C1063.48 415.785 1064.98 417.821 1066.04 420.165C1067.13 422.509 1067.69 425.196 1067.71 428.226C1067.69 432.677 1066.55 436.536 1064.3 439.803C1062.08 443.046 1058.86 445.567 1054.64 447.366C1050.45 449.142 1045.4 450.03 1039.48 450.03C1033.61 450.03 1028.5 449.13 1024.14 447.331C1019.81 445.532 1016.42 442.868 1013.98 439.341C1011.57 435.79 1010.3 431.398 1010.18 426.166H1025.06C1025.23 428.605 1025.93 430.641 1027.16 432.274C1028.41 433.884 1030.08 435.103 1032.17 435.932C1034.27 436.737 1036.65 437.139 1039.3 437.139C1041.91 437.139 1044.17 436.76 1046.09 436.003C1048.03 435.245 1049.53 434.192 1050.6 432.842C1051.66 431.493 1052.19 429.942 1052.19 428.19C1052.19 426.557 1051.71 425.184 1050.74 424.071C1049.79 422.958 1048.39 422.011 1046.55 421.23C1044.73 420.449 1042.49 419.739 1039.84 419.099L1031.92 417.111C1025.79 415.619 1020.94 413.287 1017.39 410.115C1013.84 406.943 1012.08 402.67 1012.1 397.295C1012.08 392.892 1013.25 389.045 1015.62 385.754C1018.01 382.464 1021.29 379.895 1025.45 378.048C1029.62 376.202 1034.36 375.278 1039.66 375.278C1045.06 375.278 1049.77 376.202 1053.79 378.048C1057.84 379.895 1060.99 382.464 1063.24 385.754C1065.49 389.045 1066.65 392.857 1066.72 397.189H1051.98ZM1122.51 397.189C1122.22 394.324 1121.01 392.099 1118.85 390.513C1116.7 388.927 1113.77 388.134 1110.08 388.134C1107.57 388.134 1105.45 388.489 1103.72 389.199C1101.99 389.885 1100.67 390.844 1099.75 392.075C1098.85 393.306 1098.4 394.703 1098.4 396.266C1098.35 397.568 1098.62 398.704 1099.21 399.675C1099.83 400.645 1100.67 401.486 1101.73 402.196C1102.8 402.883 1104.03 403.486 1105.43 404.007C1106.82 404.504 1108.32 404.93 1109.9 405.286L1116.44 406.848C1119.61 407.558 1122.52 408.505 1125.17 409.689C1127.82 410.873 1130.12 412.329 1132.06 414.057C1134 415.785 1135.51 417.821 1136.57 420.165C1137.66 422.509 1138.22 425.196 1138.24 428.226C1138.22 432.677 1137.08 436.536 1134.83 439.803C1132.61 443.046 1129.39 445.567 1125.17 447.366C1120.98 449.142 1115.93 450.03 1110.01 450.03C1104.14 450.03 1099.02 449.13 1094.67 447.331C1090.34 445.532 1086.95 442.868 1084.51 439.341C1082.1 435.79 1080.83 431.398 1080.71 426.166H1095.59C1095.76 428.605 1096.46 430.641 1097.69 432.274C1098.94 433.884 1100.61 435.103 1102.69 435.932C1104.8 436.737 1107.18 437.139 1109.83 437.139C1112.44 437.139 1114.7 436.76 1116.61 436.003C1118.55 435.245 1120.06 434.192 1121.12 432.842C1122.19 431.493 1122.72 429.942 1122.72 428.19C1122.72 426.557 1122.24 425.184 1121.27 424.071C1120.32 422.958 1118.92 422.011 1117.08 421.23C1115.25 420.449 1113.02 419.739 1110.36 419.099L1102.44 417.111C1096.31 415.619 1091.47 413.287 1087.92 410.115C1084.37 406.943 1082.61 402.67 1082.63 397.295C1082.61 392.892 1083.78 389.045 1086.14 385.754C1088.54 382.464 1091.81 379.895 1095.98 378.048C1100.15 376.202 1104.88 375.278 1110.19 375.278C1115.58 375.278 1120.29 376.202 1124.32 378.048C1128.37 379.895 1131.52 382.464 1133.77 385.754C1136.01 389.045 1137.17 392.857 1137.25 397.189H1122.51Z" fill="#133551"/>
<path d="M1491 434.5V385H1552V434.5H1491Z" fill="#143755"/>
<path d="M379 434.5V385H440V434.5H379Z" fill="#143755"/>
<path d="M815.5 271L820 260H1116L1120 271H815.5Z" fill="#AFB5B5"/>
</svg>
